<svg width="77" height="78" viewBox="0 0 77 78" fill="none" xmlns="http://www.w3.org/2000/svg">
<g filter="url(#filter0_d_4_76)">
<path fill-rule="evenodd" clip-rule="evenodd" d="M38.5 15.3023C48.2934 15.3023 56.2325 23.2415 56.2325 33.0348V33.8602C56.2325 43.6536 48.2934 51.5928 38.5 51.5928C28.7065 51.5928 20.7674 43.6536 20.7674 33.8602V33.0348C20.7674 23.2415 28.7065 15.3023 38.5 15.3023Z" fill="#D83F31"/>
</g>
<path d="M35.5467 33.0893C35.5467 34.7536 36.8901 36.097 38.5544 36.097C40.2187 36.097 41.5621 34.7536 41.5621 33.0893C41.5621 31.425 40.2187 30.0816 38.5544 30.0816C36.8901 30.0816 35.5467 31.425 35.5467 33.0893Z" fill="white"/>
<path d="M34.5441 30.0816C34.5441 29.5302 34.093 29.079 33.5416 29.079H31.6267C33.0102 26.6829 35.5968 25.0688 38.5544 25.0688C42.0534 25.0688 45.021 27.3145 46.1138 30.4425C46.2541 30.8335 46.6451 31.0842 47.0562 31.0842C47.7379 31.0842 48.2392 30.4124 48.0186 29.7708C46.6451 25.8608 42.9256 23.0636 38.5544 23.0636C35.276 23.0636 32.3585 24.6477 30.5339 27.0839V26.0713C30.5339 25.5199 30.0827 25.0688 29.5313 25.0688C28.9799 25.0688 28.5287 25.5199 28.5287 26.0713V30.0816C28.5287 30.633 28.9799 31.0842 29.5313 31.0842H33.5416C34.093 31.0842 34.5441 30.633 34.5441 30.0816ZM42.5647 36.097C42.5647 36.6484 43.0158 37.0996 43.5672 37.0996H45.4821C44.0986 39.4957 41.512 41.1098 38.5544 41.1098C35.0554 41.1098 32.0878 38.8641 30.995 35.7361C30.922 35.5459 30.7926 35.3826 30.6242 35.2679C30.4558 35.1532 30.2564 35.0927 30.0526 35.0944C29.3709 35.0944 28.8696 35.7661 29.0902 36.4078C30.4637 40.3178 34.1832 43.115 38.5544 43.115C41.8328 43.115 44.7503 41.5309 46.5749 39.0947V40.1073C46.5749 40.6587 47.0261 41.1098 47.5775 41.1098C48.1289 41.1098 48.5801 40.6587 48.5801 40.1073V36.097C48.5801 35.5456 48.1289 35.0944 47.5775 35.0944H43.5672C43.0158 35.0944 42.5647 35.5456 42.5647 36.097Z" fill="white"/>
<defs>
<filter id="filter0_d_4_76" x="-5.16306e-05" y="-4.30255e-06" width="77" height="77.8253" filterUnits="userSpaceOnUse" color-interpolation-filters="sRGB">
<feFlood flood-opacity="0" result="BackgroundImageFix"/>
<feColorMatrix in="SourceAlpha" type="matrix" values="0 0 0 0 0 0 0 0 0 0 0 0 0 0 0 0 0 0 127 0" result="hardAlpha"/>
<feOffset dy="5.45113"/>
<feGaussianBlur stdDeviation="10.3571"/>
<feColorMatrix type="matrix" values="0 0 0 0 0.882353 0 0 0 0 0.2 0 0 0 0 0.2 0 0 0 0.38 0"/>
<feBlend mode="normal" in2="BackgroundImageFix" result="effect1_dropShadow_4_76"/>
<feBlend mode="normal" in="SourceGraphic" in2="effect1_dropShadow_4_76" result="shape"/>
</filter>
</defs>
</svg>
