<svg width="25" height="25" viewBox="0 0 25 25" fill="none" xmlns="http://www.w3.org/2000/svg">
<path d="M12.1538 15.3924C13.9211 15.3924 15.3538 13.9597 15.3538 12.1924C15.3538 10.4251 13.9211 8.99237 12.1538 8.99237C10.3865 8.99237 8.9538 10.4251 8.9538 12.1924C8.9538 13.9597 10.3865 15.3924 12.1538 15.3924Z" fill="#219C90"/>
<path d="M7.32379 4.69238H7.54401L7.69268 4.52991L9.37401 2.69238H14.9336L16.6149 4.52991L16.7636 4.69238H16.9838H20.1538C20.9777 4.69238 21.6538 5.36853 21.6538 6.19238V18.1924C21.6538 19.0162 20.9777 19.6924 20.1538 19.6924H4.15379C3.32994 19.6924 2.65379 19.0162 2.65379 18.1924V6.19238C2.65379 5.36853 3.32994 4.69238 4.15379 4.69238H7.32379ZM6.65379 12.1924C6.65379 15.2285 9.11765 17.6924 12.1538 17.6924C15.1899 17.6924 17.6538 15.2285 17.6538 12.1924C17.6538 9.15624 15.1899 6.69238 12.1538 6.69238C9.11765 6.69238 6.65379 9.15624 6.65379 12.1924Z" stroke="#219C90"/>
</svg>
