<svg width="25" height="25" viewBox="0 0 25 25" fill="none" xmlns="http://www.w3.org/2000/svg">
<path d="M12.1538 15.9308C13.9211 15.9308 15.3538 14.4981 15.3538 12.7308C15.3538 10.9635 13.9211 9.53082 12.1538 9.53082C10.3865 9.53082 8.9538 10.9635 8.9538 12.7308C8.9538 14.4981 10.3865 15.9308 12.1538 15.9308Z" fill="#219C90"/>
<path d="M9.15379 2.73083L7.32379 4.73083H4.15379C3.05379 4.73083 2.15379 5.63084 2.15379 6.73083V18.7308C2.15379 19.8308 3.05379 20.7308 4.15379 20.7308H20.1538C21.2538 20.7308 22.1538 19.8308 22.1538 18.7308V6.73083C22.1538 5.63084 21.2538 4.73083 20.1538 4.73083H16.9838L15.1538 2.73083H9.15379ZM12.1538 17.7308C9.39379 17.7308 7.15379 15.4908 7.15379 12.7308C7.15379 9.97083 9.39379 7.73083 12.1538 7.73083C14.9138 7.73083 17.1538 9.97083 17.1538 12.7308C17.1538 15.4908 14.9138 17.7308 12.1538 17.7308Z" fill="#219C90"/>
</svg>
