<svg width="24" height="24" viewBox="0 0 24 24" fill="none" xmlns="http://www.w3.org/2000/svg">
<path d="M0 22.0781C0.239347 21.4031 0.409578 20.707 0.606688 20.0198C1.69143 16.2318 2.76977 12.4412 3.85067 8.65193C3.96395 8.25487 4.13674 8.11911 4.53416 8.11334C6.50461 8.08196 8.34324 7.54017 10.0942 6.66666C10.4916 6.46877 10.8743 6.24142 11.2628 6.02561C11.6071 5.83412 11.8189 5.8591 12.1011 6.14088C14.0178 8.05699 15.9332 9.97373 17.848 11.8918C18.1322 12.1761 18.1603 12.3958 17.9491 12.7499C17.265 13.9007 16.7089 15.1079 16.3422 16.3983C16.0638 17.3775 15.8929 18.374 15.8776 19.3942C15.8705 19.877 15.7592 20.023 15.2913 20.1569C10.8769 21.4204 6.46174 22.6839 2.04725 23.9481C2.00373 23.9609 1.96278 23.9827 1.92054 24.0006C1.8111 24.0006 1.70167 24.0006 1.59288 24.0006C1.37017 23.8661 1.19802 23.7016 1.21977 23.4102C1.23513 23.2046 1.36569 23.0733 1.50264 22.9433C3.66508 20.9004 5.83329 18.8639 7.98421 16.8088C8.37779 16.4329 8.78929 16.2478 9.33838 16.2683C10.2222 16.301 10.937 15.5812 10.9498 14.7051C10.9626 13.8072 10.2555 13.0554 9.37358 13.0304C8.42643 13.0035 7.64503 13.8047 7.71287 14.7467C7.74231 15.1572 7.65079 15.5126 7.36089 15.8188C5.26308 18.0365 3.16911 20.2587 1.07322 22.4784C0.657885 22.9183 0.341742 22.8946 0 22.4066C0 22.2971 0 22.1876 0 22.0781Z" fill="#219C90"/>
<path d="M15.804 1.72166e-06C16.2814 -0.000638688 16.6845 0.177395 17.0192 0.51233C19.1657 2.66219 21.3153 4.80948 23.456 6.9651C24.1459 7.65994 24.1888 8.59046 23.5315 9.29427C22.7809 10.0986 22.0116 10.8889 21.1925 11.6247C20.6191 12.1396 19.7442 12.1242 19.1484 11.635C19.0639 11.5658 18.9814 11.4941 18.9039 11.4166C16.7908 9.29939 14.6776 7.18284 12.5657 5.06372C11.9411 4.4374 11.8202 3.6894 12.2195 2.97727C12.3008 2.83253 12.407 2.70829 12.5222 2.59238C13.2102 1.9001 13.8994 1.20846 14.5912 0.519374C14.9509 0.162025 15.3374 0.00128254 15.804 1.72166e-06Z" fill="#219C90"/>
</svg>
