<svg width="25" height="25" viewBox="0 0 25 25" fill="none" xmlns="http://www.w3.org/2000/svg">
<path d="M0 24.2245C0.20412 23.7828 0.294173 23.3057 0.426917 22.842C1.78905 18.0859 3.14318 13.3272 4.49997 8.56979C4.64539 8.06002 4.77147 7.94593 5.30244 7.93325C8.10542 7.86519 10.5855 6.85366 12.8989 5.34771C13.0243 5.26631 13.0423 5.22093 12.9396 5.09683C12.3152 4.34018 12.3479 3.4234 13.0323 2.7228C13.7601 1.97817 14.5045 1.25021 15.2376 0.510248C15.4978 0.248025 15.8253 0.117914 16.1621 -0.000854492C16.3736 -0.000854492 16.5851 -0.000854492 16.7972 -0.000854492C17.3662 0.145937 17.7564 0.542943 18.1533 0.94195C20.2305 3.0304 22.3138 5.11351 24.3976 7.19529C24.9326 7.72974 25.1421 8.3436 24.9006 9.08223C24.8099 9.3598 24.6385 9.58466 24.4357 9.78816C23.7233 10.5028 23.0135 11.2201 22.2957 11.9287C21.57 12.6453 20.6801 12.6886 19.8863 12.0508C19.7816 11.9667 19.7322 11.954 19.6489 12.0795C18.4361 13.9177 17.567 15.896 17.1968 18.0772C17.1014 18.6391 17.0707 19.2082 17.0473 19.7774C17.0293 20.2091 16.9206 20.3525 16.5064 20.4713C12.7088 21.5589 8.91123 22.6458 5.11367 23.7321C3.71818 24.1317 2.32203 24.5307 0.926544 24.9311C0.445595 25.0692 0.272827 25.0105 0 24.6141C0 24.4854 0 24.3553 0 24.2245ZM2.61287 23.2497C2.65956 23.239 2.69825 23.2323 2.7356 23.2216C3.73419 22.9374 4.73278 22.6538 5.7307 22.3689C9.04531 21.4221 12.3599 20.4739 15.6759 19.5325C15.8646 19.4791 15.922 19.3977 15.9307 19.2015C15.9607 18.5436 16.0507 17.8911 16.1908 17.2472C16.6578 15.0994 17.5603 13.143 18.7877 11.3295C18.8771 11.1974 18.9271 11.1113 18.779 10.9645C17.1901 9.38916 15.6092 7.80514 14.0309 6.21845C13.9162 6.10302 13.8388 6.09568 13.7067 6.18843C12.7788 6.83831 11.7896 7.38144 10.7536 7.83583C9.18739 8.52242 7.55843 8.9728 5.84476 9.06822C5.60462 9.08156 5.52191 9.16163 5.4592 9.38182C4.39791 13.1203 3.32729 16.8555 2.25933 20.5921C2.08856 21.1899 1.92046 21.7877 1.73902 22.429C1.80372 22.3796 1.83174 22.3636 1.85375 22.3415C3.95432 20.2418 6.05355 18.1406 8.15612 16.0428C8.24951 15.9494 8.25684 15.8787 8.19481 15.7699C8.0654 15.5411 7.98735 15.2895 7.96734 15.03C7.89597 14.1292 8.21882 13.3899 8.97193 12.8908C9.73238 12.387 10.5422 12.367 11.3487 12.8074C12.3666 13.3632 12.7988 14.7331 12.2799 15.7432C11.6915 16.8896 10.3988 17.3686 9.29212 16.8355C9.12135 16.7534 9.03197 16.7721 8.90189 16.9029C6.85869 18.956 4.80882 21.0031 2.76162 23.0528C2.70892 23.1069 2.63354 23.1476 2.61287 23.2497ZM23.846 8.5044C23.8513 8.3109 23.7353 8.16812 23.5998 8.03333C22.8167 7.25133 22.0349 6.46867 21.2531 5.68667C19.827 4.26012 18.4008 2.83223 16.9733 1.40701C16.6251 1.05938 16.3349 1.05938 15.9867 1.40234C15.7666 1.61919 15.5491 1.83872 15.3303 2.05757C14.8527 2.53464 14.3738 3.01038 13.8982 3.49012C13.5633 3.82841 13.5633 4.124 13.8908 4.46095C13.9415 4.51366 13.9942 4.56437 14.0462 4.61642C16.2028 6.77359 18.3594 8.93143 20.5174 11.0886C20.8589 11.4302 21.1577 11.4536 21.4719 11.144C22.2017 10.424 22.9234 9.69609 23.6472 8.9708C23.7713 8.84469 23.8547 8.6999 23.846 8.5044ZM11.3527 14.8084C11.3787 14.1886 10.8877 13.6708 10.2527 13.6501C9.63499 13.6294 9.11601 14.1265 9.096 14.7571C9.07666 15.3583 9.56294 15.8694 10.1893 15.9067C10.7963 15.9421 11.326 15.4417 11.3527 14.8084Z" fill="#219C90"/>
</svg>
