<svg width="21" height="21" viewBox="0 0 21 21" fill="none" xmlns="http://www.w3.org/2000/svg">
<path d="M17.535 5.9675L12.495 2.44125C11.1212 1.47875 9.0125 1.53125 7.69125 2.555L3.30749 5.97625C2.43249 6.65875 1.74124 8.05875 1.74124 9.16125V15.1988C1.74124 17.43 3.55249 19.25 5.78374 19.25H15.2163C17.4475 19.25 19.2588 17.4388 19.2588 15.2075V9.275C19.2588 8.09375 18.4975 6.64125 17.535 5.9675ZM11.1562 15.75C11.1562 16.1088 10.8587 16.4063 10.5 16.4063C10.1412 16.4063 9.84375 16.1088 9.84375 15.75V13.125C9.84375 12.7663 10.1412 12.4688 10.5 12.4688C10.8587 12.4688 11.1562 12.7663 11.1562 13.125V15.75Z" fill="#219C90"/>
</svg>
