<svg width="24" height="24" viewBox="0 0 24 24" fill="none" xmlns="http://www.w3.org/2000/svg">
<path d="M15.5 14H14.71L14.43 13.73C15.055 13.004 15.5117 12.1488 15.7676 11.2256C16.0234 10.3025 16.0721 9.33415 15.91 8.39C15.44 5.61 13.12 3.4 10.33 3.05C9.45612 2.93783 8.56852 3.00473 7.72129 3.24662C6.87407 3.48851 6.08494 3.90032 5.40198 4.45698C4.71903 5.01364 4.15652 5.70349 3.74874 6.48452C3.34095 7.26556 3.09642 8.12142 3.03003 9H5.05003C5.29003 6.88 6.97003 5.2 9.11003 5.02C11.65 4.8 14 6.95 14 9.5C14 11.99 11.99 14 9.50003 14C9.33003 14 9.17003 13.97 9.00003 13.95V15.97L9.01003 15.98C10.81 16.11 12.48 15.51 13.73 14.43L14 14.71V15.5L18.25 19.75C18.66 20.16 19.33 20.16 19.74 19.75C20.15 19.34 20.15 18.67 19.74 18.26L15.5 14Z" fill="#219C90"/>
<path d="M4.5882 10.3412L4.4176 10L4.24701 10.3412L3.90583 10.3838L4.19038 10.6254L4.07642 11.0235L4.4176 10.7963L4.75879 11.0235L4.64483 10.6254L4.92938 10.3838L4.5882 10.3412ZM7.43159 13.9802L7.14705 13.4118L6.8625 13.9802L6.2941 14.0515L6.768 14.4545L6.57864 15.1177L7.14705 14.7387L7.71546 15.1177L7.5261 14.4545L8 14.0515L7.43159 13.9802ZM3.10986 11.1372L2.88229 10.6824L2.65473 11.1372L2.19993 11.1941L2.57898 11.5162L2.4275 12.0471L2.88229 11.7438L3.33709 12.0471L3.1856 11.5162L3.56465 11.1941L3.10986 11.1372ZM2 14.7765C2 14.9587 2.07097 15.13 2.19993 15.259L2.74104 15.8001C2.87001 15.929 3.04128 16 3.22347 16C3.40566 16 3.57694 15.929 3.7059 15.8001L7.65882 11.8472C7.78779 11.7182 7.85875 11.5469 7.85875 11.3647C7.85875 11.1825 7.78779 11.0113 7.65882 10.8823L7.11771 10.3412C6.85977 10.0832 6.41078 10.0832 6.15285 10.3412L2.19993 14.2941C2.07097 14.4231 2 14.5943 2 14.7765ZM6.63528 10.8236L7.17639 11.3647L5.95292 12.5882L5.4118 12.0471L6.63528 10.8236Z" fill="#219C90"/>
</svg>
