<svg width="30" height="30" viewBox="0 0 30 30" fill="none" xmlns="http://www.w3.org/2000/svg">
<path d="M25.2449 6.38741H20.7449V5.48741C20.7449 4.77133 20.4605 4.08457 19.9541 3.57823C19.4478 3.07188 18.761 2.78741 18.0449 2.78741H12.6449C11.9288 2.78741 11.2421 3.07188 10.7357 3.57823C10.2294 4.08457 9.94492 4.77133 9.94492 5.48741V6.38741H5.44492C5.20623 6.38741 4.97731 6.48224 4.80853 6.65102C4.63974 6.8198 4.54492 7.04872 4.54492 7.28741C4.54492 7.52611 4.63974 7.75503 4.80853 7.92381C4.97731 8.09259 5.20623 8.18741 5.44492 8.18741H6.34492V24.3874C6.34492 24.8648 6.53456 25.3226 6.87213 25.6602C7.2097 25.9978 7.66753 26.1874 8.14492 26.1874H22.5449C23.0223 26.1874 23.4801 25.9978 23.8177 25.6602C24.1553 25.3226 24.3449 24.8648 24.3449 24.3874V8.18741H25.2449C25.4836 8.18741 25.7125 8.09259 25.8813 7.92381C26.0501 7.75503 26.1449 7.52611 26.1449 7.28741C26.1449 7.04872 26.0501 6.8198 25.8813 6.65102C25.7125 6.48224 25.4836 6.38741 25.2449 6.38741ZM13.5449 19.8874C13.5449 20.1261 13.4501 20.355 13.2813 20.5238C13.1125 20.6926 12.8836 20.7874 12.6449 20.7874C12.4062 20.7874 12.1773 20.6926 12.0085 20.5238C11.8397 20.355 11.7449 20.1261 11.7449 19.8874V12.6874C11.7449 12.4487 11.8397 12.2198 12.0085 12.051C12.1773 11.8822 12.4062 11.7874 12.6449 11.7874C12.8836 11.7874 13.1125 11.8822 13.2813 12.051C13.4501 12.2198 13.5449 12.4487 13.5449 12.6874V19.8874ZM18.9449 19.8874C18.9449 20.1261 18.8501 20.355 18.6813 20.5238C18.5125 20.6926 18.2836 20.7874 18.0449 20.7874C17.8062 20.7874 17.5773 20.6926 17.4085 20.5238C17.2397 20.355 17.1449 20.1261 17.1449 19.8874V12.6874C17.1449 12.4487 17.2397 12.2198 17.4085 12.051C17.5773 11.8822 17.8062 11.7874 18.0449 11.7874C18.2836 11.7874 18.5125 11.8822 18.6813 12.051C18.8501 12.2198 18.9449 12.4487 18.9449 12.6874V19.8874ZM18.9449 6.38741H11.7449V5.48741C11.7449 5.24872 11.8397 5.0198 12.0085 4.85102C12.1773 4.68224 12.4062 4.58741 12.6449 4.58741H18.0449C18.2836 4.58741 18.5125 4.68224 18.6813 4.85102C18.8501 5.0198 18.9449 5.24872 18.9449 5.48741V6.38741Z" fill="white"/>
</svg>
