<svg width="24" height="28" viewBox="0 0 24 28" fill="none" xmlns="http://www.w3.org/2000/svg">
<path d="M18.7947 28.0005C14.2614 28.0005 9.72934 28.0005 5.19603 28.0005C4.91976 27.8238 4.78592 27.5968 4.79575 27.254C4.82031 26.4716 4.80312 25.6868 4.80312 24.9032C4.80312 24.4971 4.80311 24.4971 4.40283 24.4135C1.73834 23.864 0.00949916 21.794 0.0033598 19.1279C-0.00277957 16.1034 0.00090405 13.079 0.0033598 10.0545C0.0033598 9.7177 0.0254615 9.38325 0.07826 9.0476C0.412241 6.94649 2.22335 5.14162 4.36722 4.76655C5.21445 4.61843 6.06537 4.67696 6.91628 4.67099C7.13607 4.6698 7.20238 4.61366 7.19992 4.39745C7.18764 3.54101 7.18519 2.68456 7.19747 1.82811C7.21343 0.722013 7.96489 0.0124873 9.10067 0.0112928C11.0112 0.0124873 12.923 0.0435439 14.8324 0.000542368C15.8184 -0.0221529 16.835 0.668261 16.7994 1.91172C16.7773 2.71323 16.7945 3.51473 16.7958 4.31623C16.7958 4.66621 16.7958 4.66144 17.158 4.66741C17.9242 4.67816 18.6977 4.60291 19.4566 4.74147C22.1689 5.23837 23.9628 7.29409 23.9825 9.97332C24.0046 13.0527 24.007 16.1321 23.9825 19.2115C23.9604 21.9242 22.1186 23.9895 19.3657 24.4434C19.1926 24.472 19.1864 24.5568 19.1864 24.6846C19.1889 25.5232 19.1717 26.3617 19.195 27.199C19.2036 27.5538 19.1042 27.8166 18.7947 28.0005ZM11.9862 19.8255C12.5031 19.8279 13.0114 19.7681 13.5124 19.6403C14.5463 19.3751 15.4451 18.8782 16.2064 18.1472C16.4016 17.9597 16.4446 17.7363 16.3513 17.4974C16.269 17.2848 16.0922 17.1689 15.8577 17.1474C15.6219 17.1259 15.4537 17.249 15.2916 17.3971C14.4886 18.1329 13.537 18.5605 12.438 18.6501C10.9793 18.7683 9.71583 18.3335 8.64881 17.3541C8.34798 17.0769 7.99804 17.0746 7.75247 17.3254C7.51426 17.5691 7.5425 17.9191 7.83473 18.1926C8.99507 19.2724 10.3838 19.8052 11.9862 19.8255ZM7.2122 12.8305C7.20852 13.4744 7.74019 14.0035 8.39464 14.0059C9.03682 14.0083 9.57831 13.4899 9.58568 12.864C9.59305 12.207 9.08594 11.6934 8.41675 11.6814C7.75247 11.6707 7.21589 12.1819 7.2122 12.8305ZM16.7786 12.8485C16.781 12.1963 16.2592 11.6838 15.5924 11.6826C14.9368 11.6814 14.4124 12.1855 14.4051 12.8198C14.3989 13.4672 14.9208 13.9952 15.5765 14.0059C16.2285 14.0167 16.7761 13.4887 16.7786 12.8485Z" fill="#219C90"/>
</svg>
