<svg width="23" height="28" viewBox="0 0 23 28" fill="none" xmlns="http://www.w3.org/2000/svg">
<path d="M14.2578 0.716693C14.5779 0.716693 14.8944 0.846892 15.1027 1.06429C15.304 1.27452 15.4016 1.55283 15.3934 1.89207C15.3781 2.46065 15.3816 3.03161 15.3852 3.58466C15.3863 3.82833 15.3887 4.0732 15.3887 4.31688C15.3887 5.05388 15.697 5.37281 16.4195 5.38356H16.4313C16.489 5.38475 16.5466 5.38475 16.6043 5.38475C16.769 5.38475 16.9326 5.38117 17.0915 5.37878C17.2503 5.3752 17.401 5.37281 17.5516 5.37281C17.8223 5.37281 18.1765 5.38117 18.5142 5.44567C20.783 5.87927 22.2599 7.65906 22.2763 9.97876C22.2987 13.1585 22.2987 16.263 22.2763 19.2062C22.2587 21.5605 20.7524 23.3391 18.4401 23.7369C18.2612 23.7679 17.6775 23.9268 17.6799 24.6877C17.681 24.96 17.6799 25.2336 17.6787 25.5059C17.6763 26.0661 17.674 26.6443 17.6893 27.2188C17.6905 27.2451 17.6893 27.2666 17.6893 27.2845H5.3014C5.3014 27.2821 5.3014 27.2785 5.3014 27.2761C5.31788 26.7064 5.31435 26.133 5.31199 25.58C5.31082 25.3554 5.30964 25.1296 5.30964 24.9051C5.30964 24.1573 5.08017 23.8683 4.36705 23.7142C3.27383 23.4789 2.35241 22.9258 1.70519 22.1148C1.05679 21.3025 0.711995 20.2705 0.709641 19.1285C0.703758 16.4445 0.706111 13.7163 0.708465 11.0789L0.709641 10.0564C0.709641 9.7315 0.730823 9.43765 0.773187 9.15814C0.904986 8.28855 1.33568 7.43688 1.98526 6.7608C2.63366 6.08592 3.45976 5.62723 4.31056 5.47195C4.7495 5.39192 5.20491 5.38117 5.59324 5.38117C5.74387 5.38117 5.8945 5.38236 6.04512 5.38475C6.20163 5.38714 6.35697 5.38834 6.51348 5.38834C6.55349 5.38834 6.5935 5.38834 6.63351 5.38834C6.74648 5.38714 7.0901 5.38475 7.35134 5.1148C7.61258 4.84484 7.60788 4.50203 7.6067 4.38855C7.59493 3.46879 7.59375 2.63504 7.60435 1.83951C7.61376 1.13476 8.02092 0.729832 8.72228 0.729832H8.79642C9.32126 0.729832 9.84727 0.732221 10.3721 0.73461C10.8993 0.736999 11.4277 0.739388 11.9549 0.739388C12.8386 0.739388 13.5623 0.732221 14.2307 0.716693C14.2402 0.716693 14.2496 0.716693 14.2578 0.716693ZM8.05034 14.7221C9.05413 14.7221 9.88022 13.8919 9.89199 12.8718C9.90376 11.8219 9.10708 10.9845 8.07858 10.9654C8.06682 10.9654 8.05505 10.9654 8.04328 10.9654C7.03479 10.9654 6.20987 11.8003 6.20399 12.8264C6.20163 13.3281 6.38992 13.8011 6.73589 14.1595C7.08421 14.5202 7.54668 14.7197 8.04093 14.7221C8.04328 14.7221 8.04917 14.7221 8.05034 14.7221ZM14.9462 14.7221C15.9571 14.7221 16.782 13.8823 16.7855 12.8491C16.7879 12.3403 16.5972 11.866 16.2501 11.5125C15.9041 11.1601 15.4405 10.9654 14.9415 10.9654C13.9189 10.9654 13.1093 11.7765 13.0987 12.8121C13.0881 13.8489 13.9036 14.7053 14.9156 14.7221H14.9462ZM11.5089 20.5416C12.0643 20.5416 12.6092 20.4711 13.1281 20.3326C14.2378 20.0352 15.2134 19.4714 16.0265 18.6567C16.4101 18.2721 16.5207 17.7561 16.3289 17.2424C16.1571 16.7826 15.7582 16.4804 15.2616 16.4326C15.2228 16.429 15.1828 16.4266 15.1439 16.4266C14.6367 16.4266 14.3084 16.7396 14.1684 16.8733C13.5 17.5124 12.7445 17.8588 11.8584 17.934C11.7289 17.9448 11.5995 17.9508 11.4747 17.9508C10.4404 17.9508 9.55543 17.5841 8.76935 16.8315C8.49045 16.5652 8.16331 16.4242 7.82205 16.4242C7.48196 16.4242 7.1607 16.5687 6.91476 16.8303C6.41698 17.3607 6.4617 18.1682 7.01714 18.7081C8.24569 19.9026 9.74489 20.5189 11.4747 20.5416C11.4771 20.5416 11.4795 20.5416 11.4818 20.5416H11.5089ZM14.2578 0C14.2425 0 14.2284 0 14.2131 0C13.46 0.0179173 12.7068 0.0226953 11.9537 0.0226953C10.9005 0.0226953 9.84845 0.0131394 8.79524 0.0131394C8.77053 0.0131394 8.74581 0.0131394 8.71992 0.0131394C7.63141 0.0131394 6.91123 0.72386 6.89593 1.82996C6.88416 2.6864 6.88652 3.54285 6.89828 4.3993C6.90064 4.6155 6.83709 4.67045 6.62645 4.67284C6.58762 4.67284 6.54996 4.67284 6.51113 4.67284C6.20399 4.67284 5.89803 4.66567 5.59089 4.66567C5.12136 4.66567 4.65183 4.68239 4.18347 4.7684C2.13118 5.14227 0.395443 6.94714 0.0753616 9.04825C0.0247604 9.38271 0.00357855 9.71836 0.00357855 10.0552C0.00122501 13.0796 -0.00230531 16.1041 0.00357855 19.1285C0.00946241 21.7946 1.66636 23.8635 4.21995 24.4141C4.60358 24.4966 4.60358 24.4966 4.60358 24.9039C4.60358 25.6875 4.61888 26.4711 4.59652 27.2546C4.58593 27.5975 4.71537 27.8244 4.98015 28.0012C9.32479 28.0012 13.6683 28.0012 18.0129 28.0012C18.3094 27.8172 18.4059 27.5545 18.3965 27.1997C18.3742 26.3624 18.3906 25.5238 18.3883 24.6853C18.3883 24.5563 18.3942 24.4727 18.5601 24.444C21.1984 23.9901 22.9636 21.9248 22.9848 19.2121C23.0083 16.1328 23.0071 13.0534 22.9848 9.97398C22.9659 7.29474 21.2467 5.23903 18.6472 4.74212C18.2847 4.67284 17.9199 4.65731 17.5539 4.65731C17.2386 4.65731 16.922 4.66925 16.6066 4.66925C16.5525 4.66925 16.4984 4.66925 16.4443 4.66806C16.0971 4.66328 16.0971 4.66687 16.0971 4.31688C16.0971 3.51538 16.0795 2.71268 16.1006 1.91238C16.1324 0.686831 15.1898 0 14.2578 0ZM8.05034 14.0054C8.04917 14.0054 8.04681 14.0054 8.04564 14.0054C7.41842 14.003 6.90887 13.4738 6.9124 12.83C6.91593 12.1898 7.41842 11.6821 8.04564 11.6821C8.0527 11.6821 8.05976 11.6821 8.06682 11.6821C8.70816 11.694 9.19416 12.2077 9.1871 12.8646C9.17887 13.4882 8.66344 14.0054 8.05034 14.0054ZM14.9462 14.0054C14.9403 14.0054 14.9345 14.0054 14.9274 14.0054C14.299 13.9946 13.7977 13.4667 13.8048 12.8192C13.8106 12.185 14.3143 11.6821 14.9415 11.6821H14.9427C15.5817 11.6833 16.0818 12.1945 16.0795 12.8479C16.0771 13.4822 15.5617 14.0054 14.9462 14.0054ZM11.5089 19.8249C11.5006 19.8249 11.4936 19.8249 11.4853 19.8249C9.95083 19.8046 8.61872 19.2719 7.50667 18.1909C7.2266 17.9185 7.19954 17.5673 7.42783 17.3237C7.54198 17.2018 7.67966 17.1397 7.82323 17.1397C7.97621 17.1397 8.13742 17.209 8.2857 17.3523C9.19887 18.2279 10.2627 18.6675 11.4759 18.6675C11.6207 18.6675 11.7689 18.6615 11.9184 18.6484C12.9728 18.5588 13.8836 18.1311 14.6532 17.3953C14.7956 17.2592 14.945 17.1433 15.1451 17.1433C15.1616 17.1433 15.1792 17.1445 15.1957 17.1457C15.4205 17.1672 15.5887 17.2831 15.6688 17.4957C15.7582 17.7346 15.717 17.9579 15.5299 18.1455C14.8003 18.8765 13.9389 19.3734 12.9481 19.6386C12.4774 19.7652 11.9972 19.8249 11.5089 19.8249Z" fill="#219C90" stroke="#219C90" stroke-width="0.5"/>
</svg>
