<svg width="25" height="25" viewBox="0 0 25 25" fill="none" xmlns="http://www.w3.org/2000/svg">
<path d="M12.7692 7.69237C11.8792 7.69237 11.0092 7.95629 10.2691 8.45075C9.52911 8.94522 8.95234 9.64802 8.61174 10.4703C8.27115 11.2926 8.18203 12.1974 8.35567 13.0703C8.5293 13.9432 8.95788 14.745 9.58722 15.3743C10.2166 16.0037 11.0184 16.4323 11.8913 16.6059C12.7642 16.7795 13.669 16.6904 14.4913 16.3498C15.3135 16.0092 16.0163 15.4325 16.5108 14.6924C17.0053 13.9524 17.2692 13.0824 17.2692 12.1924C17.268 10.9993 16.7935 9.8554 15.9498 9.01176C15.1062 8.16811 13.9623 7.69361 12.7692 7.69237ZM12.7692 15.1924C12.1759 15.1924 11.5958 15.0164 11.1025 14.6868C10.6091 14.3571 10.2246 13.8886 9.99756 13.3404C9.7705 12.7922 9.71109 12.189 9.82684 11.6071C9.9426 11.0252 10.2283 10.4906 10.6479 10.071C11.0674 9.65149 11.602 9.36576 12.1839 9.25001C12.7659 9.13425 13.3691 9.19366 13.9173 9.42073C14.4654 9.64779 14.934 10.0323 15.2636 10.5257C15.5933 11.019 15.7692 11.599 15.7692 12.1924C15.7692 12.988 15.4531 13.7511 14.8905 14.3137C14.3279 14.8763 13.5649 15.1924 12.7692 15.1924ZM21.0192 12.3949C21.023 12.2599 21.023 12.1249 21.0192 11.9899L22.418 10.2424C22.4913 10.1506 22.5421 10.0429 22.5662 9.92795C22.5903 9.81299 22.587 9.69397 22.5567 9.58049C22.3274 8.71855 21.9844 7.89097 21.5367 7.11955C21.4781 7.0186 21.3967 6.93273 21.2991 6.86876C21.2014 6.8048 21.0902 6.76451 20.9742 6.75111L18.7505 6.50361C18.658 6.40612 18.5642 6.31237 18.4692 6.22236L18.2067 3.99299C18.1932 3.87694 18.1528 3.76565 18.0886 3.66799C18.0245 3.57033 17.9385 3.489 17.8373 3.43049C17.0656 2.98363 16.2381 2.64096 15.3764 2.41143C15.2628 2.38124 15.1438 2.37815 15.0288 2.40241C14.9138 2.42668 14.8062 2.47761 14.7145 2.55111L12.9717 3.94236H12.5667L10.8192 2.54643C10.7274 2.47308 10.6198 2.42232 10.5048 2.39822C10.3898 2.37412 10.2708 2.37736 10.1573 2.40768C9.29553 2.63739 8.468 2.98038 7.69639 3.42768C7.59544 3.4863 7.50956 3.56767 7.4456 3.66532C7.38164 3.76298 7.34135 3.87421 7.32795 3.99018L7.08045 6.21768C6.98295 6.3108 6.8892 6.40455 6.7992 6.49893L4.56983 6.75487C4.45377 6.76837 4.34248 6.80879 4.24482 6.87292C4.14716 6.93705 4.06584 7.02311 4.00733 7.12424C3.56046 7.89596 3.21779 8.72347 2.98826 9.58518C2.95807 9.69873 2.95498 9.81779 2.97925 9.93276C3.00351 10.0477 3.05445 10.1554 3.12795 10.2471L4.5192 11.9899V12.3949L3.12326 14.1424C3.04992 14.2341 2.99915 14.3418 2.97505 14.4568C2.95095 14.5717 2.95419 14.6908 2.98451 14.8042C3.21382 15.6662 3.55683 16.4938 4.00451 17.2652C4.06313 17.3661 4.14451 17.452 4.24216 17.516C4.33981 17.5799 4.45105 17.6202 4.56701 17.6336L6.79076 17.8811C6.88389 17.9786 6.97764 18.0724 7.07201 18.1624L7.3317 20.3917C7.3452 20.5078 7.38563 20.6191 7.44976 20.7167C7.51389 20.8144 7.59995 20.8957 7.70108 20.9542C8.47279 21.4011 9.3003 21.7438 10.162 21.9733C10.2756 22.0035 10.3946 22.0066 10.5096 21.9823C10.6246 21.9581 10.7322 21.9071 10.8239 21.8336L12.5667 20.4424C12.7017 20.4461 12.8367 20.4461 12.9717 20.4424L14.7192 21.8411C14.811 21.9145 14.9186 21.9652 15.0336 21.9893C15.1486 22.0134 15.2676 22.0102 15.3811 21.9799C16.243 21.7506 17.0706 21.4076 17.842 20.9599C17.943 20.9012 18.0288 20.8199 18.0928 20.7222C18.1568 20.6246 18.1971 20.5133 18.2105 20.3974L18.458 18.1736C18.5555 18.0811 18.6492 17.9874 18.7392 17.8924L20.9686 17.6299C21.0846 17.6164 21.1959 17.5759 21.2936 17.5118C21.3912 17.4477 21.4726 17.3616 21.5311 17.2605C21.9779 16.4888 22.3206 15.6613 22.5501 14.7996C22.5803 14.686 22.5834 14.5669 22.5592 14.452C22.5349 14.337 22.484 14.2293 22.4105 14.1377L21.0192 12.3949ZM19.5098 11.7855C19.5258 12.0565 19.5258 12.3282 19.5098 12.5992C19.4987 12.7848 19.5568 12.9679 19.673 13.113L21.0033 14.7752C20.8506 15.2603 20.6552 15.7309 20.4192 16.1814L18.3005 16.4214C18.1159 16.4419 17.9456 16.5301 17.8223 16.6689C17.6419 16.8719 17.4497 17.0641 17.2467 17.2446C17.1079 17.3678 17.0197 17.5382 16.9992 17.7227L16.7639 19.8396C16.3134 20.0756 15.8428 20.2711 15.3576 20.4236L13.6945 19.0933C13.5614 18.987 13.3961 18.9291 13.2258 18.9292H13.1808C12.9097 18.9452 12.638 18.9452 12.367 18.9292C12.1815 18.9181 11.9984 18.9762 11.8533 19.0924L10.1864 20.4236C9.70126 20.271 9.23066 20.0755 8.78014 19.8396L8.54014 17.7236C8.51966 17.5391 8.43147 17.3687 8.29264 17.2455C8.08968 17.065 7.89747 16.8728 7.71701 16.6699C7.59376 16.531 7.4234 16.4428 7.23889 16.4224L5.12201 16.1861C4.88594 15.7356 4.69048 15.265 4.53795 14.7799L5.86826 13.1167C5.98442 12.9716 6.04256 12.7885 6.03139 12.603C6.01545 12.332 6.01545 12.0603 6.03139 11.7892C6.04256 11.6037 5.98442 11.4206 5.86826 11.2755L4.53795 9.60955C4.6906 9.12443 4.88606 8.65383 5.12201 8.2033L7.23795 7.9633C7.42246 7.94282 7.59283 7.85463 7.71608 7.7158C7.89654 7.51284 8.08874 7.32064 8.2917 7.14018C8.43108 7.01685 8.51963 6.8461 8.54014 6.66112L8.77545 4.54518C9.22592 4.30911 9.69653 4.11365 10.1817 3.96111L11.8448 5.29143C11.9899 5.40759 12.173 5.46572 12.3586 5.45455C12.6296 5.43862 12.9013 5.43862 13.1723 5.45455C13.3579 5.46572 13.541 5.40759 13.6861 5.29143L15.352 3.96111C15.8371 4.11376 16.3077 4.30922 16.7583 4.54518L16.9983 6.66112C17.0187 6.84563 17.1069 7.01599 17.2458 7.13924C17.4487 7.3197 17.6409 7.5119 17.8214 7.71486C17.9446 7.8537 18.115 7.94188 18.2995 7.96236L20.4164 8.19768C20.6525 8.64815 20.8479 9.11876 21.0005 9.60393L19.6701 11.2671C19.5529 11.4134 19.4947 11.5984 19.507 11.7855H19.5098Z" fill="#219C90"/>
</svg>
