<svg width="25" height="25" viewBox="0 0 25 25" fill="none" xmlns="http://www.w3.org/2000/svg">
<path d="M21.0192 12.4717C21.023 12.3367 21.023 12.2017 21.0192 12.0667L22.418 10.3192C22.4913 10.2275 22.5421 10.1198 22.5662 10.0048C22.5903 9.88986 22.587 9.77085 22.5567 9.65736C22.327 8.79557 21.984 7.96804 21.5367 7.19643C21.4781 7.09547 21.3967 7.0096 21.2991 6.94564C21.2014 6.88167 21.0902 6.84139 20.9742 6.82799L18.7505 6.58049C18.658 6.48299 18.5642 6.38924 18.4692 6.29924L18.2067 4.06986C18.1932 3.95381 18.1528 3.84252 18.0886 3.74486C18.0245 3.6472 17.9385 3.56587 17.8373 3.50736C17.0658 3.06041 16.2382 2.71803 15.3764 2.48924C15.2629 2.45892 15.1439 2.45568 15.0289 2.47978C14.914 2.50388 14.8063 2.55465 14.7145 2.62799L12.9717 4.01924H12.5667L10.8192 2.6233C10.7274 2.54996 10.6198 2.49919 10.5048 2.47509C10.3898 2.45099 10.2708 2.45423 10.1573 2.48455C9.29553 2.71426 8.468 3.05725 7.69639 3.50455C7.59544 3.56317 7.50956 3.64454 7.4456 3.7422C7.38164 3.83985 7.34135 3.95109 7.32795 4.06705L7.08045 6.29455C6.98295 6.38768 6.8892 6.48143 6.7992 6.5758L4.56983 6.83174C4.45377 6.84524 4.34248 6.88567 4.24482 6.9498C4.14716 7.01393 4.06584 7.09999 4.00733 7.20111C3.56046 7.97283 3.21779 8.80034 2.98826 9.66205C2.95807 9.77561 2.95498 9.89467 2.97925 10.0096C3.00351 10.1246 3.05445 10.2323 3.12795 10.3239L4.5192 12.0667V12.4717L3.12326 14.2192C3.04992 14.311 2.99915 14.4187 2.97505 14.5337C2.95095 14.6486 2.95419 14.7676 2.98451 14.8811C3.21423 15.7429 3.55722 16.5704 4.00451 17.3421C4.06313 17.443 4.14451 17.5289 4.24216 17.5928C4.33981 17.6568 4.45105 17.6971 4.56701 17.7105L6.79076 17.958C6.88389 18.0555 6.97764 18.1492 7.07201 18.2392L7.3317 20.4686C7.3452 20.5847 7.38563 20.696 7.44976 20.7936C7.51389 20.8913 7.59995 20.9726 7.70108 21.0311C8.47279 21.478 9.3003 21.8206 10.162 22.0502C10.2756 22.0804 10.3946 22.0835 10.5096 22.0592C10.6246 22.0349 10.7322 21.984 10.8239 21.9105L12.5667 20.5192C12.7017 20.523 12.8367 20.523 12.9717 20.5192L14.7192 21.918C14.811 21.9913 14.9186 22.0421 15.0336 22.0662C15.1486 22.0903 15.2676 22.0871 15.3811 22.0567C16.243 21.8274 17.0706 21.4844 17.842 21.0367C17.943 20.9781 18.0288 20.8967 18.0928 20.7991C18.1568 20.7014 18.1971 20.5902 18.2105 20.4742L18.458 18.2505C18.5555 18.158 18.6492 18.0642 18.7392 17.9692L20.9686 17.7067C21.0846 17.6932 21.1959 17.6528 21.2936 17.5887C21.3912 17.5246 21.4726 17.4385 21.5311 17.3374C21.9779 16.5656 22.3206 15.7381 22.5501 14.8764C22.5803 14.7629 22.5834 14.6438 22.5592 14.5288C22.5349 14.4139 22.484 14.3062 22.4105 14.2146L21.0192 12.4717ZM12.7692 16.0192C12.0275 16.0192 11.3025 15.7993 10.6858 15.3873C10.0691 14.9752 9.58848 14.3895 9.30465 13.7043C9.02082 13.0191 8.94656 12.2651 9.09126 11.5377C9.23595 10.8102 9.5931 10.142 10.1176 9.61759C10.642 9.09314 11.3102 8.73599 12.0376 8.59129C12.765 8.4466 13.519 8.52086 14.2043 8.80469C14.8895 9.08852 15.4752 9.56917 15.8872 10.1859C16.2993 10.8025 16.5192 11.5276 16.5192 12.2692C16.5192 13.2638 16.1241 14.2176 15.4209 14.9209C14.7176 15.6242 13.7638 16.0192 12.7692 16.0192Z" fill="#219C90"/>
</svg>
