<svg width="72" height="72" viewBox="0 0 72 72" fill="none" xmlns="http://www.w3.org/2000/svg">
<g filter="url(#filter0_d_4_75)">
<path fill-rule="evenodd" clip-rule="evenodd" d="M35.6526 15.2727C43.8957 15.2727 50.578 21.9551 50.578 30.1981V30.8928C50.578 39.1358 43.8957 45.8182 35.6526 45.8182C27.4096 45.8182 20.7273 39.1358 20.7273 30.8928V30.1981C20.7273 21.9551 27.4096 15.2727 35.6526 15.2727Z" fill="#D83F31"/>
</g>
<path d="M35.5184 21.0583C35.0581 21.0583 34.5879 21.0983 34.1176 21.1984C31.3558 21.7287 29.1544 23.9601 28.6341 26.7218C28.1538 29.3335 29.1144 31.735 30.8555 33.286C31.2858 33.6662 31.5159 34.1965 31.5159 34.7569V37.0683C31.5159 38.169 32.4165 39.0696 33.5172 39.0696H33.7974C33.9705 39.3733 34.221 39.6257 34.5232 39.8013C34.8255 39.9769 35.1689 40.0694 35.5184 40.0694C35.868 40.0694 36.2114 39.9769 36.5136 39.8013C36.8159 39.6257 37.0664 39.3733 37.2395 39.0696H37.5197C38.6204 39.0696 39.5209 38.169 39.5209 37.0683V34.7569C39.5209 34.2065 39.7411 33.6662 40.1613 33.296C40.9045 32.6418 41.4996 31.8366 41.9068 30.9342C42.314 30.0317 42.5241 29.0528 42.5228 28.0627C42.5228 24.1903 39.3909 21.0583 35.5184 21.0583ZM37.5197 37.0683H33.5172V36.0677H37.5197V37.0683ZM37.5197 35.0671H33.5172V34.0665H37.5197V35.0671ZM36.0188 29.4736V32.0652H35.0181V29.4736L33.187 27.6524L33.8974 26.942L35.5184 28.563L37.1395 26.942L37.8499 27.6524L36.0188 29.4736Z" fill="white"/>
<defs>
<filter id="filter0_d_4_75" x="-5.15307e-05" y="-4.29423e-06" width="71.3053" height="72" filterUnits="userSpaceOnUse" color-interpolation-filters="sRGB">
<feFlood flood-opacity="0" result="BackgroundImageFix"/>
<feColorMatrix in="SourceAlpha" type="matrix" values="0 0 0 0 0 0 0 0 0 0 0 0 0 0 0 0 0 0 127 0" result="hardAlpha"/>
<feOffset dy="5.45113"/>
<feGaussianBlur stdDeviation="10.3571"/>
<feColorMatrix type="matrix" values="0 0 0 0 0.882353 0 0 0 0 0.2 0 0 0 0 0.2 0 0 0 0.38 0"/>
<feBlend mode="normal" in2="BackgroundImageFix" result="effect1_dropShadow_4_75"/>
<feBlend mode="normal" in="SourceGraphic" in2="effect1_dropShadow_4_75" result="shape"/>
</filter>
</defs>
</svg>
